<svg xmlns="http://www.w3.org/2000/svg" xmlns:xlink="http://www.w3.org/1999/xlink" width="1920" zoomAndPan="magnify" viewBox="0 0 1440 809.999993" height="1080" preserveAspectRatio="xMidYMid meet" version="1.0"><defs><g/><clipPath id="f169fcbe51"><path d="M 985 153 L 1402 153 L 1402 363 L 985 363 Z M 985 153 " clip-rule="nonzero"/></clipPath><clipPath id="960936ed06"><path d="M 958.332031 187.773438 L 1377.101562 75.730469 L 1440.101562 311.199219 L 1021.332031 423.242188 Z M 958.332031 187.773438 " clip-rule="nonzero"/></clipPath><clipPath id="0bba6a2e17"><path d="M 958.332031 187.773438 L 1377.101562 75.730469 L 1440.101562 311.199219 L 1021.332031 423.242188 Z M 958.332031 187.773438 " clip-rule="nonzero"/></clipPath></defs><g fill="#000000" fill-opacity="1"><g transform="translate(26.213486, 356.02055)"><g><path d="M 64.484375 -214.5 L 64.484375 -42.90625 L 138.3125 -42.90625 L 138.3125 0 L 15.59375 0 L 15.59375 -214.5 Z M 64.484375 -214.5 "/></g></g></g><g fill="#000000" fill-opacity="1"><g transform="translate(208.990457, 356.02055)"><g><path d="M 138.3125 -214.5 L 138.3125 -171.59375 L 64.484375 -171.59375 L 64.484375 -128.953125 L 135.203125 -128.953125 L 135.203125 -86.0625 L 64.484375 -86.0625 L 64.484375 -42.90625 L 138.3125 -42.90625 L 138.3125 0 L 15.59375 0 L 15.59375 -214.5 Z M 138.3125 -214.5 "/></g></g></g><g fill="#000000" fill-opacity="1"><g transform="translate(395.6673, 356.02055)"><g><path d="M 2.078125 -171.59375 L 2.078125 -214.5 L 152.875 -214.5 L 152.875 -171.59375 L 101.921875 -171.59375 L 101.921875 0 L 53.046875 0 L 53.046875 -171.59375 Z M 2.078125 -171.59375 "/></g></g></g><g fill="#000000" fill-opacity="1"><g transform="translate(586.504071, 356.02055)"><g><path d="M 23.390625 -210.46875 C 28.597656 -215.757812 34.925781 -218.40625 42.375 -218.40625 C 49.832031 -218.40625 56.25 -215.71875 61.625 -210.34375 C 67 -204.96875 69.6875 -198.550781 69.6875 -191.09375 C 69.6875 -168.21875 56.507812 -145.773438 30.15625 -123.765625 L 17.9375 -133.375 C 18.976562 -134.414062 20.320312 -135.847656 21.96875 -137.671875 C 23.613281 -139.492188 26.082031 -143.304688 29.375 -149.109375 C 32.664062 -154.910156 34.832031 -160.757812 35.875 -166.65625 C 29.988281 -168.039062 25.132812 -170.988281 21.3125 -175.5 C 17.5 -180.007812 15.59375 -185.207031 15.59375 -191.09375 C 15.59375 -198.726562 18.191406 -205.1875 23.390625 -210.46875 Z M 23.390625 -210.46875 "/></g></g></g><g fill="#000000" fill-opacity="1"><g transform="translate(698.042487, 356.02055)"><g><path d="M 94.640625 -218.40625 C 106.253906 -218.40625 117.609375 -216.710938 128.703125 -213.328125 C 139.796875 -209.953125 148.03125 -206.613281 153.40625 -203.3125 L 161.203125 -198.125 L 141.4375 -159.125 C 139.875 -160.164062 137.707031 -161.507812 134.9375 -163.15625 C 132.164062 -164.800781 126.96875 -167.007812 119.34375 -169.78125 C 111.71875 -172.550781 104.609375 -173.9375 98.015625 -173.9375 C 89.867188 -173.9375 83.585938 -172.203125 79.171875 -168.734375 C 74.753906 -165.273438 72.546875 -160.597656 72.546875 -154.703125 C 72.546875 -151.753906 73.582031 -149.019531 75.65625 -146.5 C 77.738281 -143.988281 81.289062 -141.300781 86.3125 -138.4375 C 91.34375 -135.582031 95.765625 -133.285156 99.578125 -131.546875 C 103.390625 -129.816406 109.285156 -127.222656 117.265625 -123.765625 C 131.128906 -117.867188 142.957031 -109.847656 152.75 -99.703125 C 162.539062 -89.566406 167.4375 -78.085938 167.4375 -65.265625 C 167.4375 -52.953125 165.226562 -42.203125 160.8125 -33.015625 C 156.394531 -23.828125 150.328125 -16.632812 142.609375 -11.4375 C 134.898438 -6.238281 126.363281 -2.382812 117 0.125 C 107.632812 2.644531 97.492188 3.90625 86.578125 3.90625 C 77.222656 3.90625 68.035156 2.953125 59.015625 1.046875 C 50.003906 -0.859375 42.460938 -3.242188 36.390625 -6.109375 C 30.328125 -8.972656 24.867188 -11.789062 20.015625 -14.5625 C 15.160156 -17.332031 11.609375 -19.671875 9.359375 -21.578125 L 5.984375 -24.4375 L 30.421875 -65.515625 C 32.503906 -63.785156 35.363281 -61.578125 39 -58.890625 C 42.632812 -56.203125 49.085938 -52.601562 58.359375 -48.09375 C 67.640625 -43.59375 75.832031 -41.34375 82.9375 -41.34375 C 103.5625 -41.34375 113.875 -48.363281 113.875 -62.40625 C 113.875 -65.34375 113.132812 -68.066406 111.65625 -70.578125 C 110.1875 -73.097656 107.585938 -75.613281 103.859375 -78.125 C 100.140625 -80.644531 96.847656 -82.640625 93.984375 -84.109375 C 91.128906 -85.578125 86.453125 -87.828125 79.953125 -90.859375 C 73.453125 -93.898438 68.640625 -96.203125 65.515625 -97.765625 C 52.515625 -104.171875 42.460938 -112.179688 35.359375 -121.796875 C 28.253906 -131.421875 24.703125 -141.78125 24.703125 -152.875 C 24.703125 -172.113281 31.804688 -187.84375 46.015625 -200.0625 C 60.234375 -212.289062 76.441406 -218.40625 94.640625 -218.40625 Z M 94.640625 -218.40625 "/></g></g></g><g fill="#000000" fill-opacity="1"><g transform="translate(908.638899, 356.02055)"><g><path d="M 45.234375 -55.640625 C 53.554688 -55.640625 60.617188 -52.734375 66.421875 -46.921875 C 72.234375 -41.117188 75.140625 -34.054688 75.140625 -25.734375 C 75.140625 -17.585938 72.234375 -10.609375 66.421875 -4.796875 C 60.617188 1.003906 53.554688 3.90625 45.234375 3.90625 C 37.085938 3.90625 30.109375 1.003906 24.296875 -4.796875 C 18.492188 -10.609375 15.59375 -17.585938 15.59375 -25.734375 C 15.59375 -34.054688 18.492188 -41.117188 24.296875 -46.921875 C 30.109375 -52.734375 37.085938 -55.640625 45.234375 -55.640625 Z M 45.234375 -55.640625 "/></g></g></g><g fill="#000000" fill-opacity="1"><g transform="translate(26.213486, 674.020534)"><g><path d="M 2.3125 -191.40625 L 2.3125 -239.25 L 170.515625 -239.25 L 170.515625 -191.40625 L 113.6875 -191.40625 L 113.6875 0 L 59.15625 0 L 59.15625 -191.40625 Z M 2.3125 -191.40625 "/></g></g></g><g fill="#000000" fill-opacity="1"><g transform="translate(239.070241, 674.020534)"><g><path d="M 17.40625 -239.25 L 102.953125 -239.25 C 125.953125 -239.25 144.703125 -233.109375 159.203125 -220.828125 C 173.703125 -208.554688 180.953125 -191.015625 180.953125 -168.203125 C 180.953125 -150.609375 176.550781 -135.863281 167.75 -123.96875 C 158.957031 -112.082031 147.023438 -103.722656 131.953125 -98.890625 L 214.3125 0 L 145 0 L 71.921875 -94.546875 L 71.921875 0 L 17.40625 0 Z M 71.921875 -133.109375 L 78.296875 -133.109375 C 83.328125 -133.109375 87.582031 -133.203125 91.0625 -133.390625 C 94.539062 -133.585938 98.503906 -134.265625 102.953125 -135.421875 C 107.398438 -136.585938 110.972656 -138.234375 113.671875 -140.359375 C 116.378906 -142.484375 118.703125 -145.578125 120.640625 -149.640625 C 122.578125 -153.703125 123.546875 -158.628906 123.546875 -164.421875 C 123.546875 -170.222656 122.578125 -175.15625 120.640625 -179.21875 C 118.703125 -183.28125 116.378906 -186.375 113.671875 -188.5 C 110.972656 -190.625 107.398438 -192.265625 102.953125 -193.421875 C 98.503906 -194.585938 94.539062 -195.265625 91.0625 -195.453125 C 87.582031 -195.648438 83.328125 -195.75 78.296875 -195.75 L 71.921875 -195.75 Z M 71.921875 -133.109375 "/></g></g></g><g fill="#000000" fill-opacity="1"><g transform="translate(486.726371, 674.020534)"><g><path d="M 138.90625 -239.25 L 235.484375 0 L 176.90625 0 L 159.203125 -47.84375 L 68.15625 -47.84375 L 50.453125 0 L -8.125 0 L 88.453125 -239.25 Z M 140.65625 -95.703125 L 113.96875 -165.296875 L 113.390625 -165.296875 L 86.703125 -95.703125 Z M 140.65625 -95.703125 "/></g></g></g><g fill="#000000" fill-opacity="1"><g transform="translate(754.102092, 674.020534)"><g><path d="M 92.21875 0 L -8.125 -239.25 L 53.359375 -239.25 L 113.6875 -82.0625 L 174 -239.25 L 235.484375 -239.25 L 135.140625 0 Z M 92.21875 0 "/></g></g></g><g fill="#000000" fill-opacity="1"><g transform="translate(1021.477814, 674.020534)"><g><path d="M 154.28125 -239.25 L 154.28125 -191.40625 L 71.921875 -191.40625 L 71.921875 -143.84375 L 150.796875 -143.84375 L 150.796875 -95.984375 L 71.921875 -95.984375 L 71.921875 -47.84375 L 154.28125 -47.84375 L 154.28125 0 L 17.40625 0 L 17.40625 -239.25 Z M 154.28125 -239.25 "/></g></g></g><g fill="#000000" fill-opacity="1"><g transform="translate(1229.694633, 674.020534)"><g><path d="M 71.921875 -239.25 L 71.921875 -47.84375 L 154.28125 -47.84375 L 154.28125 0 L 17.40625 0 L 17.40625 -239.25 Z M 71.921875 -239.25 "/></g></g></g><g clip-path="url(#f169fcbe51)"><g clip-path="url(#960936ed06)"><g clip-path="url(#0bba6a2e17)"><path fill="#ffffff" d="M 1369.492188 155.347656 C 1382.117188 156.859375 1397.503906 152.742188 1400.863281 165.296875 C 1408.792969 194.9375 1290.949219 245.40625 1286.382812 246.628906 L 1269.554688 345.839844 C 1268.527344 353.441406 1264.996094 356.226562 1260.578125 358.011719 L 1247.761719 362.664062 L 1231.289062 301.09375 L 1199.535156 285.140625 C 1196.683594 285.90625 1180.898438 293.171875 1146.703125 302.320312 C 1106.789062 312.996094 1095.5 314.195312 1092.648438 314.960938 L 1093.28125 335.5625 C 1093.621094 339.148438 1084.382812 343.441406 1082.070312 341.617188 L 1054.214844 319.738281 C 1050.230469 320.804688 1039.664062 322.425781 1038.742188 318.992188 C 1037.527344 314.445312 1038.777344 312.273438 1040.753906 310.523438 L 986.589844 281.625 C 982.984375 279.542969 991.722656 271.101562 1002.050781 273.207031 L 1049.585938 281.871094 L 1037.882812 249.566406 L 1047.125 245.28125 C 1050.394531 243.789062 1059.191406 246.941406 1062.066406 248.597656 L 1100.269531 272.597656 L 1148.984375 249.167969 L 1118.476562 231.082031 L 987.253906 190.421875 L 994.949219 180.414062 C 994.949219 180.414062 996.625 177.523438 1004.605469 175.390625 L 1250.722656 202.421875 L 1316.777344 170.695312 C 1319.46875 169.351562 1329.621094 159.3125 1343.871094 155.5 C 1359.277344 151.378906 1360.039062 154.21875 1369.5 155.347656 " fill-opacity="1" fill-rule="nonzero"/></g></g></g></svg>